<mxfile host="app.diagrams.net" modified="2024-03-01T07:46:18.676Z" agent="Mozilla/5.0 (Macintosh; Intel Mac OS X 10_15_7) AppleWebKit/605.1.15 (KHTML, like Gecko) Version/17.3.1 Safari/605.1.15" version="24.0.0" etag="djRLBCY-r--BQfr5tbQx" type="github">
  <diagram name="Sayfa -1" id="oAgnorwOzCePQN8EbFVs">
    <mxGraphModel>
      <root>
        <mxCell id="0" />
        <mxCell id="1" parent="0" />
      </root>
    </mxGraphModel>
  </diagram>
</mxfile>
